<svg width="24" height="24" viewBox="0 0 24 24" fill="none" xmlns="http://www.w3.org/2000/svg">
<path d="M13.349 2.37798C13.428 2.23989 13.5488 2.1305 13.6941 2.0656C13.8393 2.00071 14.0014 1.98368 14.157 2.01698L14.284 2.04398C14.8131 2.15731 15.3125 2.38018 15.7502 2.69824C16.1879 3.0163 16.5542 3.4225 16.8254 3.89068C17.0966 4.35886 17.2668 4.87865 17.3249 5.41658C17.383 5.95451 17.3279 6.49866 17.163 7.01398L16.527 8.99998H17.664C20.309 8.99998 22.177 11.591 21.34 14.1L19.781 18.778C19.5653 19.425 19.1514 19.9878 18.5981 20.3866C18.0448 20.7853 17.38 21 16.698 21H11.409C10.3798 21.0002 9.38169 20.6476 8.581 20.001C8.43894 20.3 8.21499 20.5526 7.93514 20.7294C7.65529 20.9062 7.33103 21 7 21H4.75C4.28587 21 3.84075 20.8156 3.51256 20.4874C3.18437 20.1592 3 19.7141 3 19.25V10.75C3 9.78398 3.784 8.99998 4.75 8.99998H9.42C9.46407 8.99996 9.50735 8.9883 9.54545 8.96618C9.58356 8.94405 9.61514 8.91224 9.637 8.87398L13.349 2.37798ZM8.75 18.16L9.433 18.758C9.98004 19.2365 10.6822 19.5002 11.409 19.5H16.698C17.0653 19.4999 17.4233 19.3843 17.7212 19.1694C18.0191 18.9546 18.2419 18.6515 18.358 18.303L19.917 13.626C20.036 13.269 20.0685 12.8888 20.0117 12.5168C19.955 12.1448 19.8106 11.7916 19.5906 11.4863C19.3706 11.181 19.0811 10.9324 18.7462 10.7609C18.4112 10.5894 18.0403 10.5 17.664 10.5H15.5C15.3819 10.5 15.2655 10.472 15.1602 10.4185C15.0549 10.365 14.9638 10.2873 14.8942 10.1919C14.8246 10.0965 14.7786 9.986 14.7598 9.86941C14.7409 9.75282 14.7499 9.63344 14.786 9.52098L15.734 6.55698C15.917 5.98588 15.8771 5.36672 15.6224 4.8238C15.3677 4.28088 14.9171 3.85439 14.361 3.62998L10.939 9.61798C10.786 9.88582 10.5649 10.1085 10.2982 10.2634C10.0314 10.4183 9.72846 10.4999 9.42 10.5H8.75V18.16ZM7.25 10.5H4.75C4.6837 10.5 4.62011 10.5263 4.57322 10.5732C4.52634 10.6201 4.5 10.6837 4.5 10.75V19.25C4.5 19.388 4.612 19.5 4.75 19.5H7C7.0663 19.5 7.12989 19.4736 7.17678 19.4268C7.22366 19.3799 7.25 19.3163 7.25 19.25V10.5Z" fill="#6D6D6D"/>
</svg>
