<svg width="160" height="36" viewBox="0 0 160 36" fill="none" xmlns="http://www.w3.org/2000/svg">
<g clip-path="url(#clip0_33_2)">
<path d="M13.5255 30.2749C13.3824 30.2749 13.2329 30.259 13.0817 30.2289C12.4121 30.0986 11.2922 29.6604 11.3415 28.1979C11.3702 27.3627 11.3893 26.51 11.4068 25.6859V25.6494C11.4243 24.8522 11.4449 23.9487 11.4736 23.077C11.5292 21.4986 11.5404 19.9012 11.5531 18.3545V18.2783C11.5611 17.405 11.5674 16.5015 11.5833 15.6106C11.6024 14.4134 11.5308 13.1827 11.4624 11.9918C11.3734 10.4643 11.2827 8.88907 11.3718 7.30593C11.4036 6.71682 11.4529 5.82601 12.148 5.09875C12.5616 4.66208 13.0801 4.4223 13.6035 4.4223C13.7546 4.4223 13.9041 4.44294 14.0489 4.48264C14.6533 4.65414 15.0828 5.14003 15.2244 5.81807C15.5409 7.28687 16.6226 8.32377 17.7679 9.42101L17.8283 9.47976C18.2165 9.85133 18.8432 10.1308 19.4476 10.4007L19.481 10.4166C19.6083 10.4738 19.7355 10.531 19.8596 10.5881C20.4545 10.8644 21.0733 11.1248 21.6714 11.3773C22.6051 11.7711 23.5643 12.1744 24.4853 12.654C25.9646 13.4225 27.3835 14.226 28.4859 15.4074C28.4652 14.6992 28.4445 14.0037 28.4286 13.3336C28.3952 11.9871 28.3634 10.5437 28.3698 9.12249C28.3698 8.71122 28.3698 8.38253 28.2489 8.12211C28.1057 7.81088 28.0007 7.48695 27.9339 7.15825C27.7907 6.46752 27.9085 5.8133 28.2695 5.32105C28.5988 4.87009 29.1078 4.58744 29.7011 4.5271C29.7839 4.51916 29.865 4.5144 29.9461 4.5144C30.4742 4.5144 30.9721 4.6986 31.3459 5.03047C31.7945 5.42903 32.0458 6.01338 32.0538 6.67394C32.0649 7.63462 32.0665 8.90018 31.9838 10.1673C31.9138 11.2407 31.9361 12.3793 32.049 13.5527C32.3369 16.5221 32.251 19.266 32.1603 22.1719C32.1142 23.655 32.0665 25.1889 32.0744 26.7323C32.0744 27.2023 31.9345 28.0709 31.8502 28.5489C31.6815 29.4937 30.8592 30.2082 29.935 30.2146C29.0378 30.2146 28.3554 29.5572 28.1439 28.498C28.0691 28.1376 28.0866 27.8676 28.1025 27.6517C28.1073 27.5802 28.1121 27.504 28.1137 27.4167C28.1296 25.6462 27.9641 23.7613 27.6364 21.9638C27.129 19.1945 25.5686 17.1573 23.1253 16.0743C22.6878 15.8806 22.2472 15.6885 21.8066 15.4963C20.4323 14.8961 19.0166 14.2768 17.647 13.5972C16.7467 13.151 15.9259 12.6254 15.1958 12.0268C15.1894 13.0589 15.2069 14.0974 15.2228 15.112L15.2371 15.9743C15.2816 18.6467 15.2323 21.3176 15.1814 23.6121C15.1751 23.9233 15.1528 24.225 15.1321 24.5188C15.0669 25.4064 15.0176 26.1035 15.331 26.7768C15.6507 27.4532 15.6459 28.2662 15.3151 29.0046C14.8251 30.1082 13.9805 30.2733 13.5224 30.2733L13.5255 30.2749Z" fill="#911A00"/>
<path d="M117.441 35.6182C116.991 35.6182 116.578 35.4769 116.247 35.2117C115.693 34.7671 115.448 34.0335 115.572 33.2014C115.677 32.4773 116.121 31.9835 116.495 31.6341C117.459 30.7417 117.705 30.2479 117.756 29.1157C117.791 28.3361 117.828 27.558 117.866 26.7784C117.973 24.5473 118.084 22.2401 118.124 19.9742C118.14 19.131 118.159 18.2878 118.179 17.4431C118.259 14.0863 118.342 10.6199 118.105 7.2313C117.206 7.18207 116.512 6.51357 116.401 5.57035C116.306 4.75894 116.783 3.84431 118.067 3.63312C119.059 3.46797 120.063 3.3854 121.047 3.3854C123.919 3.3854 126.399 4.0809 128.419 5.45126C131.567 7.58699 132.939 9.15742 133.281 13.3511L133.286 13.4003V13.4495C133.283 13.5067 133.242 14.8516 132.758 15.7218C132.715 15.8012 132.691 15.8695 132.645 16.0187C132.469 16.5856 132.228 17.3621 130.409 19.5296C129.284 20.8714 127.871 21.8098 126.637 22.5529C125.862 23.0182 124.568 23.2389 124.047 23.312C123.898 23.3342 123.745 23.3453 123.597 23.3453C122.772 23.3453 122.078 23.015 121.679 22.472C121.599 25.0968 121.477 27.7533 121.214 30.3813C121.202 30.502 121.192 30.6131 121.181 30.7195L121.175 30.7846C121.09 31.6977 121.028 32.3582 120.456 33.4586C119.947 34.4384 119.236 35.1069 118.34 35.4435C118.035 35.5594 117.731 35.6182 117.438 35.6182H117.441ZM121.703 7.07886C121.994 10.1086 121.914 13.1542 121.838 16.1029L121.835 16.2363C121.811 17.1366 121.79 18.037 121.77 18.9389C121.76 19.3803 121.751 19.8218 121.739 20.2664C122.121 19.7836 122.719 19.4597 123.391 19.3708C124.095 19.2819 124.906 19.0643 125.245 18.8738C126.733 18.0322 127.986 16.6793 128.77 15.066L128.783 15.0422L128.796 15.0184C129.521 13.7322 129.655 13.4956 128.812 11.1899C128.225 9.90056 127.159 8.86048 125.552 8.00937C124.682 7.54729 123.343 7.33769 122.159 7.1519C122.003 7.12808 121.851 7.10268 121.703 7.07886Z" fill="#911A00"/>
<path d="M45.8593 33.1077C44.539 33.1077 43.1837 32.7092 41.9398 31.9533L41.9048 31.9327C41.8858 31.92 41.8714 31.912 41.8571 31.9041C39.9435 31.0435 38.3529 29.3158 37.1312 26.7704C36.7892 26.0574 36.7272 25.4461 36.9419 24.8999C37.136 24.4029 37.5368 24.0313 38.1318 23.7963C38.4737 23.6597 38.8157 23.5914 39.145 23.5914C39.4488 23.5914 39.7383 23.6502 40.004 23.7661C40.5178 23.99 40.9202 24.4219 41.1381 24.984C41.2304 25.2222 41.3083 25.4128 41.3863 25.6017C41.5374 25.9717 41.6917 26.3449 41.9287 27.0118C42.2452 27.8978 42.7956 28.4472 43.2012 28.5965C43.354 28.6521 43.5082 28.7108 43.6641 28.7712L43.7007 28.7855C44.5422 29.1062 45.3328 29.4079 46.1217 29.4079C46.3412 29.4079 46.5496 29.3841 46.7564 29.3365C46.898 29.3031 47.0348 29.2825 47.1573 29.2634C47.2638 29.2475 47.4197 29.2237 47.4738 29.2031C49.6864 27.774 51.0974 26.3195 50.8079 23.8661C50.7745 23.5914 50.7776 23.3263 50.7808 23.0928C50.7808 22.9706 50.784 22.8499 50.7808 22.7356C50.7442 21.8463 50.7442 21.8178 50.3132 21.0444C49.9044 20.5554 49.5942 20.0123 49.3206 19.4947C48.8482 18.5927 48.1419 17.9004 47.2241 17.432C46.8837 17.2589 46.5544 17.0747 46.2347 16.8968C45.5157 16.4967 44.784 16.0886 44.0364 15.8536C41.8174 15.1533 40.2394 13.621 38.9335 12.2395C38.4308 11.7092 38.1318 11.0867 38.0474 10.388C38.0252 10.2102 37.9981 10.026 37.9727 9.84181C37.9075 9.3829 37.8343 8.86366 37.8057 8.34759C37.7325 6.98358 38.1445 5.79266 38.9955 4.90185C39.8529 4.00468 41.1 3.51085 42.5061 3.51085H42.8179C43.898 3.51085 45.0019 3.4775 46.0692 3.44416H46.1026C46.8057 3.42192 47.5231 3.39969 48.231 3.3854C48.2835 3.3854 48.3328 3.3854 48.3805 3.3854C48.8847 3.3854 49.3349 3.4251 49.7596 3.50767C50.6933 3.6871 51.3089 4.4096 51.2898 5.30835C51.2628 6.28808 50.52 6.9423 49.7946 7.16143C49.5831 7.22495 49.3635 7.2567 49.1393 7.2567C49.0534 7.2567 48.9643 7.25194 48.8768 7.24241C48.6286 7.21542 48.3041 7.20113 47.9097 7.20113C47.5152 7.20113 47.0332 7.21542 46.4828 7.244H46.4605H46.4081H46.3794C46.1154 7.22971 45.8402 7.22336 45.5427 7.22336C45.048 7.22336 44.5613 7.24082 44.0475 7.25988C43.5035 7.28052 42.9547 7.30116 42.3566 7.30116C42.083 7.30116 41.9494 7.31069 41.8842 7.31863C41.846 7.36468 41.7887 7.43931 41.741 7.50283C41.7028 7.55364 41.6615 7.60763 41.6153 7.66638C41.609 7.7299 41.6058 7.81247 41.6026 7.8744C41.5931 8.05224 41.5835 8.24914 41.5438 8.45081C41.3911 9.26699 41.6042 9.74653 42.4998 10.5818C43.548 11.5567 44.8715 12.2078 46.1488 12.8382C46.4446 12.9843 46.7389 13.1288 47.0316 13.278C47.1859 13.3558 47.3402 13.4336 47.4961 13.5114L47.5518 13.54C48.2151 13.8719 48.9022 14.2165 49.5656 14.6246C50.7633 15.3613 52.2299 16.4284 52.9489 18.164C53.1494 18.6467 53.3927 19.0929 53.6504 19.5645L53.827 19.89C54.6478 21.4176 54.5253 23.0198 54.4155 24.4314C54.4012 24.622 54.3869 24.8046 54.3742 24.9856L54.3551 25.2794C54.2946 26.2575 54.2278 27.3659 53.6409 28.4679C52.2395 31.0911 49.9982 32.5885 46.785 33.0426C46.4796 33.0855 46.1679 33.1077 45.8561 33.1077H45.8593Z" fill="#911A00"/>
<path d="M148.851 31.6437C148.262 31.6437 147.685 31.423 147.303 31.0514C146.929 30.6878 146.754 30.2003 146.81 29.6779C146.878 29.0268 147.06 28.5997 147.166 28.3424C147.181 28.3075 147.2 28.2646 147.211 28.2345C147.267 25.3349 147.286 22.2243 147.306 19.2152V19.166C147.325 16.114 147.346 12.9589 147.403 10.0006C147.408 9.75765 147.403 9.49564 147.4 9.26381C147.397 9.11931 147.395 8.97481 147.394 8.82714L147.289 8.85572L146.737 9.00181C144.314 9.64173 143.664 9.81322 142.256 11.9521C141.652 12.8683 141.306 13.8227 141.173 14.9564C141.17 14.9771 141.163 15.0438 141.305 15.1073C141.947 15.4026 142.218 15.8377 142.331 16.1521C142.503 16.6301 142.45 17.1604 142.173 17.7273C141.963 18.1576 141.605 18.4689 141.163 18.6038C140.999 18.6531 140.826 18.6785 140.648 18.6785C140.25 18.6785 139.833 18.5546 139.409 18.3101C138.146 17.5892 137.506 16.5634 137.511 15.2645C137.522 11.1566 140.358 7.1519 144.257 5.74343C146.921 4.77958 148.779 4.67795 151.13 4.55092L151.237 4.54457C151.541 4.5271 151.856 4.51122 152.185 4.49058C152.686 4.462 153.666 4.42706 153.675 4.42706H155.783C156.066 4.42706 156.354 4.42706 157.261 4.43024H157.477C157.816 4.43024 158.212 4.43977 158.611 4.56839C160.132 5.0527 160.037 6.16582 159.971 6.49451C159.788 7.43931 159.085 8.05224 158.18 8.05224C158.117 8.05224 158.053 8.04907 157.986 8.04271C157.617 8.00937 157.307 8.0046 157.08 8.0046C156.932 8.0046 156.785 8.00619 156.637 8.00937C156.462 8.01254 156.289 8.01413 156.104 8.01413C155.982 8.01413 155.855 8.01413 155.719 8.01096C155.576 8.00778 155.441 8.00619 155.314 8.00619C154.673 8.00619 154.208 8.04271 153.758 8.07765C153.335 8.11099 152.896 8.14434 152.346 8.14434C151.973 8.14434 151.582 8.12846 151.153 8.0967C151.134 8.0967 151.113 8.09353 151.094 8.09194C151.089 8.15069 151.083 8.22373 151.078 8.31107C150.955 10.3626 151.027 12.5174 151.095 14.6007C151.157 16.4697 151.221 18.3958 151.149 20.2695C151.129 20.8063 151.103 21.3493 151.079 21.8971L151.075 21.9892C150.979 24.0869 150.881 26.2512 150.97 28.2821C150.976 28.317 151.032 28.4314 151.072 28.5155C151.254 28.8871 151.593 29.5794 151.2 30.5115C150.784 31.4992 149.731 31.5802 149.28 31.6135C149.22 31.6183 149.163 31.6214 149.113 31.6278C149.029 31.6389 148.942 31.6437 148.851 31.6437Z" fill="#911A00"/>
<path d="M70.4098 31.3769C69.4411 31.3769 68.5169 31.2737 67.5863 31.0609C65.8525 30.6639 64.2062 29.9256 62.6918 28.8617C61.0455 27.7089 59.792 25.9701 58.8583 23.5454C57.9357 21.1477 57.5301 19.0913 57.6192 17.2573C57.5683 14.4261 58.0995 11.9299 59.2432 9.62426C60.756 6.56914 62.6552 4.70971 64.8886 4.09678L65.1558 4.02374C66.3297 3.70139 67.5402 3.36794 68.8446 3.36794C69.1404 3.36794 69.4347 3.3854 69.7226 3.41875C70.1235 3.46797 70.5466 3.52514 70.9856 3.65535C71.9591 3.94276 72.6431 4.90661 72.5413 5.85141C72.492 6.31825 72.2502 6.72793 71.8573 7.00264C71.4103 7.31545 70.9093 7.36309 70.65 7.36309C70.4814 7.36309 70.3191 7.34404 70.1696 7.30752C69.9262 7.24718 69.6733 7.21859 69.3949 7.21859C68.7062 7.21859 67.9936 7.39644 67.2396 7.58381L67.106 7.61716C64.669 8.22056 63.2979 9.63061 62.2114 12.646C61.1377 15.6313 61.1346 18.6705 62.2019 21.6764C63.0227 23.9884 64.203 25.4969 65.8096 26.2893C66.0879 26.4274 66.3424 26.5608 66.5667 26.6799C67.4655 27.1547 68.0604 27.4675 68.9702 27.4675H69.0418C69.7131 27.4532 70.4273 27.2944 71.1176 27.142C71.3499 27.0896 71.5837 27.0388 71.816 26.9911C71.983 26.9578 72.1516 26.9403 72.317 26.9403C73.3462 26.9403 74.1829 27.6072 74.3976 28.5981C74.5201 29.1713 74.3913 29.7874 74.0445 30.2876C73.6945 30.7926 73.1712 31.1213 72.5715 31.2102C71.8366 31.3213 71.1097 31.3769 70.413 31.3769H70.4098Z" fill="#911A00"/>
<path d="M107.531 30.2765C107.008 30.2765 106.556 30.1447 106.226 29.8954C105.464 29.319 104.904 28.3075 105.615 27.1944C105.627 27.1563 105.629 27.0022 105.631 26.899C105.631 26.8038 105.631 26.7085 105.637 26.6148C105.831 23.2246 105.926 20.1917 105.93 17.343C105.93 16.6507 105.992 15.9663 106.051 15.3058C106.076 15.0184 106.101 14.7341 106.122 14.4483C106.127 14.3927 106.135 14.3387 106.148 14.2863C106.146 13.9259 106.138 13.5638 106.132 13.2097C106.111 12.1506 106.092 11.0661 106.184 9.97995C106.219 9.56392 106.178 9.12884 106.133 8.66835C106.089 8.19992 106.038 7.67273 106.073 7.12967C106.016 7.08521 105.933 7.02805 105.871 6.98517L105.845 6.96771C105.098 6.45164 104.795 5.59417 105.08 4.78275C105.351 4.01262 106.027 3.52355 106.889 3.4775L107.069 3.46639C107.364 3.44892 107.67 3.43145 107.99 3.43145C108.222 3.43145 108.432 3.44098 108.632 3.46162C109.451 3.54578 110.085 3.98087 110.331 4.62714C110.573 5.2623 110.393 5.99273 109.851 6.58026C109.727 6.71523 109.712 6.80098 109.728 7.2837L109.731 7.38532C109.744 7.77436 109.773 8.17769 109.801 8.56672C109.854 9.30351 109.91 10.0641 109.867 10.8406C109.854 11.0629 109.841 11.2836 109.827 11.5059C109.766 12.5079 109.704 13.5448 109.725 14.5468C109.776 16.9175 109.663 19.3057 109.553 21.6145C109.49 22.9563 109.424 24.3425 109.393 25.7018C109.377 26.3639 109.42 26.5814 109.614 26.8069C110.379 27.7041 110.323 28.8299 109.478 29.6112C108.944 30.1018 108.095 30.2765 107.53 30.2765H107.531Z" fill="#911A00"/>
<path d="M2.63098 30.2749C2.25399 30.2749 1.8595 30.1733 1.45547 29.97C0.660132 29.5731 0.299048 28.8077 0.454934 27.8645C0.571054 25.2238 0.571054 25.2032 0.504245 22.4227C0.475613 21.1207 0.478795 17.8337 0.481976 15.8711V14.8199C0.478795 14.7675 0.478795 14.7135 0.481976 14.6611V11.1899C0.481976 11.0677 0.483567 10.9454 0.486748 10.8215C0.496292 10.3325 0.502655 9.94661 0.365856 9.60838C0.0206791 8.75409 0.27996 7.86328 0.997356 7.4409C1.3998 7.20113 1.84837 7.07727 2.32557 7.07727C2.72642 7.07727 3.13841 7.1646 3.54562 7.33769C4.57956 7.77753 4.53025 8.84302 4.51435 9.19394C4.49685 9.57345 4.40459 9.90373 4.32346 10.1943C4.25825 10.4262 4.1978 10.6437 4.19621 10.8247C4.19303 11.3392 4.18667 11.8521 4.1803 12.365V12.4412C4.16281 13.7973 4.14531 15.193 4.1803 16.5586C4.21053 17.767 4.2153 18.9151 4.22007 20.0266C4.22484 21.2525 4.23121 22.5164 4.27097 23.8391C4.28211 24.1663 4.27097 24.5108 4.26461 24.8443C4.24234 25.7113 4.21689 26.6926 4.55729 27.3468C4.99632 28.2027 4.71 29.2364 3.86058 29.8636C3.48995 30.1368 3.07637 30.2749 2.62939 30.2749H2.63098Z" fill="#911A00"/>
<path d="M2.3495 4.724C0.933792 4.68431 -0.0110717 3.78714 6.30307e-05 2.493C0.00642574 1.71493 0.292748 1.03214 0.808128 0.570056C1.22489 0.1969 1.7514 0 2.33041 0C2.3829 0 2.4338 0.0015879 2.48788 0.0047637C3.84155 0.0873345 4.78482 1.20998 4.73392 2.67244C4.68938 3.90147 3.77315 4.72718 2.45289 4.72718C2.41949 4.72718 2.38449 4.72718 2.3495 4.72718V4.724Z" fill="#911A00"/>
<path d="M102.686 35.6626C102.521 35.6626 102.343 35.6452 102.142 35.6087C101.119 35.4276 99.8198 35.091 98.8527 34.0859C98.498 33.7143 98.1035 33.3602 97.7202 33.0156C97.4275 32.7536 97.1364 32.4932 96.8548 32.2185C94.814 30.2384 93.5685 28.6283 91.8505 26.1702C90.6655 24.4775 89.8208 22.6705 89.0828 20.9714C89.0573 20.9126 89.0319 20.8555 89.008 20.7983C88.2143 21.3303 87.3076 21.8162 86.4263 22.2862L86.4009 22.3005C86.1082 22.4577 85.8219 22.6101 85.5499 22.7594C85.5435 22.8134 85.5387 22.8848 85.534 22.942C85.5228 23.0754 85.5101 23.2405 85.4815 23.4279C85.1824 25.3508 85.3494 27.7756 85.5419 29.4714C85.6676 30.5972 85.281 31.4103 84.3934 31.8866C84.0133 32.0915 83.6156 32.1963 83.2116 32.1963C82.728 32.1963 82.2556 32.0422 81.842 31.7485C81.0896 31.2197 80.7699 30.3368 80.9703 29.3285C81.2439 27.9804 81.2471 26.5513 81.2503 25.1682C81.2519 24.3171 81.255 23.4453 81.3139 22.5752C81.4221 21.027 81.43 19.4327 81.438 17.8925C81.4475 15.9838 81.4586 14.018 81.6511 12.0649C81.7163 11.4138 81.7307 10.7326 81.745 10.0736C81.7609 9.32574 81.7784 8.55402 81.8643 7.77277C81.6734 7.77595 81.4857 7.78389 81.2996 7.79183H81.2805C80.9894 7.80453 80.6888 7.81564 80.3818 7.81564C80.2593 7.81564 80.1384 7.81406 80.0159 7.80929C79.3224 7.78389 78.675 7.48536 78.2375 6.99311C77.8748 6.58343 77.6999 6.08325 77.7412 5.58306C77.8383 4.48423 79.0726 3.70298 80.1209 3.6871C80.517 3.68075 80.9194 3.67916 81.3187 3.67916C81.6352 3.67916 81.9486 3.67916 82.2588 3.68234C82.5721 3.68234 82.8855 3.68552 83.1973 3.68552C83.2895 3.68552 83.3738 3.68552 83.4581 3.68552C84.6734 3.68552 85.9141 3.61882 86.9831 3.5569C87.3251 3.53784 87.6575 3.51402 87.982 3.49179C88.8139 3.43463 89.5997 3.38223 90.3983 3.38223C91.9237 3.38223 93.1899 3.5823 94.5038 4.03327C96.6846 4.7764 98.4169 7.65209 98.1353 10.0657C97.8299 12.654 96.7355 14.7945 94.6899 16.8063C93.9359 17.5495 93.2503 18.0735 92.455 18.6801C92.455 18.6801 92.2355 18.8484 92.1512 18.9119C92.6268 19.655 92.9529 20.4379 93.2678 21.1969C93.3712 21.4462 93.4746 21.6955 93.5844 21.9416C94.0839 23.0642 94.8522 24.1075 95.5934 25.1174C95.7525 25.3318 95.91 25.5477 96.0658 25.7637C96.4842 26.3417 96.8103 26.699 97.1873 27.115C97.5356 27.4993 97.8951 27.8931 98.3357 28.4742C99.2981 29.7366 100.34 30.5655 101.614 31.0831C101.759 31.1419 101.904 31.1991 102.047 31.2562L102.074 31.2673C102.487 31.4309 102.911 31.5976 103.329 31.7977L103.383 31.8247C104.368 32.2995 104.808 33.3427 104.455 34.359C104.166 35.1974 103.536 35.6595 102.68 35.6595L102.686 35.6626ZM85.4878 7.44725C85.4735 7.86487 85.4624 8.28249 85.4512 8.69852C85.4147 10.0403 85.3781 11.4249 85.2286 12.7937C85.0552 14.3864 85.0615 15.7139 85.0679 17.1192C85.0711 17.6479 85.0727 18.1846 85.0679 18.7515C86.0414 18.0894 87.0165 17.5463 87.9613 17.0191C89.4311 16.1998 90.815 15.428 92.0955 14.2847C93.2965 13.2113 93.6798 12.4158 94.1554 10.7152C94.4163 9.78147 94.3225 8.8192 93.9089 8.20309C93.5589 7.68067 93.0006 7.38056 92.2005 7.28687C91.2206 7.17096 90.3744 7.11697 89.5361 7.11697C88.2667 7.11697 87.0292 7.24241 85.491 7.44884L85.4878 7.44725Z" fill="#911A00"/>
</g>
<defs>
<clipPath id="clip0_33_2">
<rect width="160" height="35.6627" fill="white"/>
</clipPath>
</defs>
</svg>
